<?xml version="1.0" encoding="UTF-8" standalone="no"?>
<!DOCTYPE svg PUBLIC "-//W3C//DTD SVG 1.1//EN" "http://www.w3.org/Graphics/SVG/1.1/DTD/svg11.dtd">
<!-- Created with Vectornator (http://vectornator.io/) -->
<svg height="100%" stroke-miterlimit="10" style="fill-rule:nonzero;clip-rule:evenodd;stroke-linecap:round;stroke-linejoin:round;" version="1.1" viewBox="0 0 567 226.8" width="100%" xml:space="preserve" xmlns="http://www.w3.org/2000/svg" xmlns:vectornator="http://vectornator.io" xmlns:xlink="http://www.w3.org/1999/xlink">
<defs>
<linearGradient gradientTransform="matrix(1 0 0 1 0 0)" gradientUnits="userSpaceOnUse" id="LinearGradient" x1="34.6215" x2="150.04" y1="36.5141" y2="145.92">
<stop offset="0" stop-color="#294d9c"/>
<stop offset="1" stop-color="#4be1e2"/>
</linearGradient>
<clipPath id="TextBounds">
<rect height="1" width="241.49" x="94.9788" y="112.463"/>
</clipPath>
<clipPath id="TextBounds_2">
<rect height="106" width="238.554" x="316.109" y="72.2916"/>
</clipPath>
<clipPath id="TextBounds_3">
<rect height="62" width="484.428" x="94.9788" y="162.609"/>
</clipPath>
<clipPath id="TextBounds_4">
<rect height="106" width="219.462" x="94.9788" y="72.2916"/>
</clipPath>
</defs>
<g id="Layer-1" vectornator:layerName="Layer 1">
<path d="M92.2682 14.1753C72.2312 14.2277 52.2305 21.8938 36.9813 37.1597C15.4585 58.706 8.66145 90.3768 18.7648 118.491C22.6499 129.303 28.8957 139.151 37.2468 147.427C52.7768 162.817 73.1595 170.346 93.4631 170.094C93.4558 168.393 93.4344 166.646 93.41 164.169C74.6573 164.41 55.8162 157.439 41.469 143.221C33.7512 135.573 27.9816 126.463 24.3944 116.481C15.061 90.5092 21.3222 61.268 41.2035 41.3651C69.3739 13.164 115.152 13.0421 143.466 41.1007C155.204 52.733 162.033 67.3716 164.072 82.5467C165.483 82.5368 169.194 82.5265 170.1 82.5203C168.023 65.8201 160.592 49.657 147.688 36.8688C132.361 21.68 112.305 14.1228 92.2682 14.1753ZM92.3213 34.2503C88.5952 34.2597 84.8772 34.6201 81.2214 35.3347C77.5386 36.0546 73.9179 37.1202 70.4402 38.5351C66.9136 39.9699 63.5417 41.7669 60.3494 43.8778C57.0948 46.03 54.0407 48.5075 51.2412 51.3101C48.4416 54.1127 45.9767 57.156 43.8324 60.4086C41.7292 63.5989 39.9441 66.9924 38.5215 70.5123C37.1186 73.9832 36.0655 77.5788 35.3615 81.2507C35.1895 82.1477 35.7886 83.0101 36.6892 83.1815C37.5898 83.3528 38.4557 82.7562 38.6277 81.859C39.2915 78.3969 40.2794 75.0008 41.6018 71.7289C42.9426 68.4115 44.6118 65.2405 46.5941 62.2336C48.6158 59.1669 50.9629 56.2821 53.6045 53.6376C56.2461 50.9931 59.1131 48.6577 62.1817 46.6286C65.1905 44.639 68.391 42.9555 71.7148 41.6032C74.993 40.2695 78.3862 39.2667 81.8587 38.588C85.3065 37.9141 88.8067 37.5654 92.3213 37.5564C95.8358 37.5476 99.3593 37.8786 102.81 38.5351C106.286 39.1963 109.696 40.1802 112.981 41.4974C116.312 42.8329 119.495 44.4955 122.514 46.4699C125.593 48.4836 128.463 50.8214 131.118 53.4525C133.7 56.0115 135.997 58.7954 137.995 61.7576C136.276 63.5016 135.703 66.1433 136.907 68.4228C138.4 71.2518 141.927 72.344 144.767 70.8561C147.607 69.3682 148.704 65.8561 147.21 63.0271C145.984 60.7055 143.4 59.6793 140.943 60.1706C138.782 56.9289 136.295 53.8869 133.481 51.0985C130.667 48.3101 127.612 45.8284 124.346 43.6927C121.143 41.5979 117.736 39.8463 114.202 38.4293C110.718 37.032 107.108 35.9831 103.421 35.2818C99.7617 34.5857 96.0474 34.2409 92.3213 34.2503ZM110.644 54.5633C109.359 54.7725 108.146 55.4112 107.245 56.4148C106.988 56.7015 106.757 57.0217 106.555 57.367C104.939 60.1289 105.88 63.6663 108.652 65.2753C110.875 66.5649 113.52 66.1223 115.344 64.5083C116.207 65.2178 117.066 65.9369 117.867 66.73C118.743 67.5985 119.561 68.5118 120.336 69.4543C121.104 70.3863 121.823 71.3401 122.487 72.3373C123.146 73.3248 123.739 74.3617 124.293 75.4054C124.843 76.4403 125.337 77.4976 125.78 78.5793C126.221 79.6535 126.615 80.7479 126.949 81.859C127.038 82.1558 127.106 82.4601 127.188 82.7583C128.642 82.7495 129.115 82.7674 130.587 82.7583C130.434 82.1411 130.317 81.5146 130.135 80.9068C129.771 79.6929 129.342 78.51 128.861 77.3362C128.376 76.154 127.841 74.9759 127.241 73.8449C126.635 72.7041 125.968 71.618 125.249 70.5387C124.523 69.449 123.724 68.3827 122.886 67.3648C122.039 66.336 121.16 65.3498 120.204 64.4025C119.248 63.4552 118.24 62.5693 117.203 61.7311C117.163 61.699 117.112 61.7061 117.07 61.6782C117.697 59.2405 116.786 56.6075 114.494 55.2775C113.281 54.5735 111.929 54.3541 110.644 54.5633ZM77.5834 55.9123C76.3966 56.3951 75.2405 56.9275 74.1048 57.5257C72.9594 58.1289 71.8424 58.7927 70.7589 59.5094C69.6648 60.2328 68.5943 61.0024 67.5723 61.8369C66.5394 62.6804 65.5492 63.5826 64.5982 64.5347C63.6472 65.4868 62.7578 66.4905 61.9162 67.5235C61.0835 68.5456 60.3001 69.6042 59.5793 70.6974C58.8655 71.7802 58.214 72.8862 57.6143 74.03C57.0196 75.1642 56.4732 76.3366 55.9945 77.5213C55.519 78.6976 55.1043 79.9026 54.7464 81.1184C54.3904 82.3276 54.1073 83.531 53.8701 84.7684C53.6337 86.0013 53.4559 87.2479 53.339 88.4978C53.2223 89.7452 53.1499 91.0007 53.1531 92.2536C53.1563 93.5065 53.216 94.7627 53.339 96.0094C53.4623 97.2586 53.654 98.5071 53.8966 99.7387C54.1402 100.975 54.4374 102.181 54.7995 103.389C55.1636 104.603 55.5927 105.812 56.0741 106.986C56.5589 108.168 57.0935 109.32 57.694 110.451C58.2996 111.591 58.9662 112.704 59.6856 113.783C60.4119 114.873 61.2111 115.939 62.0489 116.957C62.8958 117.986 63.7751 118.972 64.731 119.92C65.6868 120.867 66.6944 121.753 67.7316 122.591C67.7714 122.623 67.8228 122.616 67.8644 122.644C67.2412 125.08 68.1506 127.716 70.4402 129.045C73.2131 130.654 76.7912 129.717 78.4066 126.955C80.0221 124.193 79.0552 120.629 76.2822 119.02C74.0538 117.727 71.3872 118.164 69.5639 119.787C68.7113 119.084 67.8597 118.35 67.0678 117.566C66.1914 116.697 65.374 115.784 64.5982 114.841C63.831 113.909 63.1121 112.956 62.4472 111.958C61.789 110.971 61.1956 109.96 60.6415 108.917C60.0921 107.882 59.598 106.824 59.1545 105.743C58.7139 104.669 58.3193 103.574 57.9861 102.463C57.6546 101.358 57.3859 100.236 57.1629 99.104C56.9406 97.9761 56.7712 96.8362 56.6583 95.692C56.5456 94.5499 56.4753 93.4014 56.4724 92.2536C56.4695 91.1059 56.5249 89.9578 56.6318 88.8152C56.7388 87.6705 56.8932 86.5322 57.1098 85.4032C57.327 84.2702 57.6071 83.151 57.9329 82.0442C58.2605 80.9314 58.6398 79.8144 59.0748 78.738C59.5129 77.6541 60.0177 76.6018 60.5619 75.5641C61.1106 74.5176 61.7144 73.4867 62.3676 72.496C63.0273 71.4953 63.7296 70.5488 64.492 69.613C65.263 68.6665 66.0896 67.7351 66.9615 66.8623C67.8335 65.9894 68.7238 65.1752 69.6701 64.4025C70.6058 63.6384 71.5898 62.9222 72.5911 62.2601C73.5826 61.6045 74.597 60.9869 75.6449 60.4351C76.684 59.8879 77.7455 59.4222 78.8315 58.9804C79.6803 58.635 80.1077 57.657 79.7609 56.8115C79.4142 55.9661 78.4322 55.567 77.5834 55.9123ZM42.3719 112.805C41.6186 112.87 40.8779 113.094 40.1679 113.466C39.4578 113.838 38.8671 114.313 38.3887 114.894C36.9534 116.639 36.6311 119.147 37.7514 121.268C38.9779 123.591 41.5342 124.618 43.9917 124.125C43.9965 124.132 43.9868 124.144 43.9917 124.151C46.1523 127.393 48.64 130.409 51.4536 133.197C54.2672 135.985 57.323 138.467 60.5884 140.603C63.7912 142.698 67.1986 144.476 70.7323 145.893C74.2169 147.29 77.8272 148.313 81.5135 149.014C85.1728 149.71 88.8874 150.081 92.6134 150.072C92.835 150.071 93.0557 150.048 93.2773 150.045C93.2675 149.286 93.2277 147.016 93.2241 146.739C93.0112 146.742 92.7997 146.765 92.5868 146.766C89.0725 146.775 85.5753 146.443 82.1243 145.787C78.6485 145.126 75.2386 144.115 71.9538 142.798C68.6233 141.463 65.4393 139.827 62.4207 137.852C59.342 135.839 56.4452 133.5 53.7904 130.87C51.2083 128.311 48.9377 125.527 46.9393 122.564C48.6643 120.821 49.2333 118.155 48.028 115.873C46.9078 113.751 44.6319 112.609 42.3719 112.805Z" fill="url(#LinearGradient)" fill-rule="nonzero" opacity="1" stroke="none"/>
<g fill="#294d9c" opacity="1" stroke="none"/>
<g fill="#3da5c6" opacity="1" stroke="none">
<path clip-path="url(#TextBounds_2)" d="M344.527 156.324C361.727 156.324 370.069 147.724 370.069 137.662C370.069 115.56 335.067 123.214 335.067 112.12C335.067 108.336 338.249 105.24 346.505 105.24C351.837 105.24 357.599 106.788 363.189 109.97L367.489 99.3916C361.899 95.8656 354.159 94.0596 346.591 94.0596C329.477 94.0596 321.221 102.574 321.221 112.808C321.221 135.168 356.223 127.428 356.223 138.694C356.223 142.392 352.869 145.144 344.613 145.144C337.389 145.144 329.821 142.564 324.747 138.866L320.017 149.358C325.349 153.486 334.981 156.324 344.527 156.324Z"/>
<path clip-path="url(#TextBounds_2)" d="M404.899 143.596C403.437 144.714 401.459 145.316 399.481 145.316C395.869 145.316 393.719 143.166 393.719 139.21L393.719 120.376L405.243 120.376L405.243 110.056L393.719 110.056L393.719 98.7896L380.303 98.7896L380.303 110.056L373.165 110.056L373.165 120.376L380.303 120.376L380.303 139.382C380.303 150.39 386.667 155.98 397.589 155.98C401.717 155.98 405.759 155.034 408.511 153.056L404.899 143.596Z"/>
<path clip-path="url(#TextBounds_2)" d="M434.741 108.336C427.345 108.336 419.863 110.314 414.789 113.926L419.605 123.3C422.959 120.634 428.033 119 432.935 119C440.159 119 443.599 122.354 443.599 128.116L432.935 128.116C418.831 128.116 413.069 133.792 413.069 141.962C413.069 149.96 419.519 155.98 430.355 155.98C437.149 155.98 441.965 153.744 444.459 149.53L444.459 155.292L457.015 155.292L457.015 128.89C457.015 114.872 448.845 108.336 434.741 108.336ZM433.709 146.95C428.979 146.95 426.141 144.714 426.141 141.36C426.141 138.264 428.119 135.942 434.397 135.942L443.599 135.942L443.599 140.672C442.051 144.886 438.181 146.95 433.709 146.95Z"/>
<path clip-path="url(#TextBounds_2)" d="M495.371 143.596C493.909 144.714 491.931 145.316 489.953 145.316C486.341 145.316 484.191 143.166 484.191 139.21L484.191 120.376L495.715 120.376L495.715 110.056L484.191 110.056L484.191 98.7896L470.775 98.7896L470.775 110.056L463.637 110.056L463.637 120.376L470.775 120.376L470.775 139.382C470.775 150.39 477.139 155.98 488.061 155.98C492.189 155.98 496.231 155.034 498.983 153.056L495.371 143.596Z"/>
<path clip-path="url(#TextBounds_2)" d="M550.411 132.33C550.411 117.452 539.919 108.336 526.331 108.336C512.227 108.336 501.649 118.312 501.649 132.158C501.649 145.918 512.055 155.98 528.051 155.98C536.393 155.98 542.843 153.4 547.143 148.498L540.005 140.758C536.823 143.768 533.297 145.23 528.395 145.23C521.343 145.23 516.441 141.704 515.151 135.942L550.153 135.942C550.239 134.824 550.411 133.362 550.411 132.33ZM526.417 118.484C532.437 118.484 536.823 122.268 537.769 128.116L514.979 128.116C515.925 122.182 520.311 118.484 526.417 118.484Z"/>
</g>
<g fill="#ffffff" opacity="1" stroke="none">
<path clip-path="url(#TextBounds_3)" d="M139.093 210.609L142.993 210.609L126.993 175.609L123.343 175.609L107.343 210.609L111.193 210.609L115.393 201.259L134.893 201.259L139.093 210.609ZM116.743 198.259L125.143 179.459L133.543 198.259L116.743 198.259Z"/>
<path clip-path="url(#TextBounds_3)" d="M194.393 175.609L194.393 204.009L171.843 175.609L168.793 175.609L168.793 210.609L172.493 210.609L172.493 182.209L194.993 210.609L198.043 210.609L198.043 175.609L194.393 175.609Z"/>
<path clip-path="url(#TextBounds_3)" d="M255.593 210.609L259.493 210.609L243.493 175.609L239.843 175.609L223.843 210.609L227.693 210.609L231.893 201.259L251.393 201.259L255.593 210.609ZM233.243 198.259L241.643 179.459L250.043 198.259L233.243 198.259Z"/>
<path clip-path="url(#TextBounds_3)" d="M285.293 210.609L308.593 210.609L308.593 207.409L288.993 207.409L288.993 175.609L285.293 175.609L285.293 210.609Z"/>
<path clip-path="url(#TextBounds_3)" d="M357.043 175.609L353.343 175.609L341.343 195.259L329.343 175.609L325.393 175.609L339.393 198.509L339.393 210.609L343.043 210.609L343.043 198.509L357.043 175.609Z"/>
<path clip-path="url(#TextBounds_3)" d="M389.343 210.609L393.043 210.609L393.043 178.809L405.343 178.809L405.343 175.609L377.043 175.609L377.043 178.809L389.343 178.809L389.343 210.609Z"/>
<path clip-path="url(#TextBounds_3)" d="M431.243 210.609L434.943 210.609L434.943 175.609L431.243 175.609L431.243 210.609Z"/>
<path clip-path="url(#TextBounds_3)" d="M481.543 210.909C486.693 210.909 491.293 209.159 494.393 205.759L492.043 203.409C489.193 206.359 485.693 207.609 481.693 207.609C473.243 207.609 466.893 201.409 466.893 193.109C466.893 184.809 473.243 178.609 481.693 178.609C485.693 178.609 489.193 179.859 492.043 182.759L494.393 180.409C491.293 177.009 486.693 175.309 481.593 175.309C471.043 175.309 463.243 182.859 463.243 193.109C463.243 203.359 471.043 210.909 481.543 210.909Z"/>
<path clip-path="url(#TextBounds_3)" d="M531.743 210.909C540.693 210.909 544.793 206.509 544.793 201.359C544.793 188.609 523.243 194.409 523.243 184.809C523.243 181.309 526.093 178.459 532.493 178.459C535.593 178.459 539.093 179.409 542.093 181.359L543.343 178.409C540.543 176.459 536.443 175.309 532.493 175.309C523.593 175.309 519.593 179.759 519.593 184.909C519.593 197.859 541.143 191.959 541.143 201.559C541.143 205.009 538.293 207.759 531.743 207.759C527.143 207.759 522.693 205.959 520.193 203.509L518.743 206.359C521.343 209.059 526.493 210.909 531.743 210.909Z"/>
</g>
<g fill="#306aaa" opacity="1" stroke="#44c2d4" stroke-linecap="butt" stroke-linejoin="round" stroke-width="0">
<path clip-path="url(#TextBounds_4)" d="M149.111 106.272L149.111 95.0916L103.617 95.0916L103.617 155.292L117.549 155.292L117.549 133.362L145.413 133.362L145.413 122.182L117.549 122.182L117.549 106.272L149.111 106.272Z"/>
<path clip-path="url(#TextBounds_4)" d="M157.625 155.292L171.041 155.292L171.041 91.4796L157.625 91.4796L157.625 155.292Z"/>
<path clip-path="url(#TextBounds_4)" d="M205.527 155.98C220.233 155.98 230.897 146.09 230.897 132.158C230.897 118.226 220.233 108.336 205.527 108.336C190.821 108.336 180.071 118.226 180.071 132.158C180.071 146.09 190.821 155.98 205.527 155.98ZM205.527 144.972C198.819 144.972 193.659 140.156 193.659 132.158C193.659 124.16 198.819 119.344 205.527 119.344C212.235 119.344 217.309 124.16 217.309 132.158C217.309 140.156 212.235 144.972 205.527 144.972Z"/>
<path clip-path="url(#TextBounds_4)" d="M300.987 109.024L289.721 140.328L278.713 109.024L267.361 109.024L256.009 140.328L245.087 109.024L232.445 109.024L249.129 155.292L262.029 155.292L272.779 126.568L283.185 155.292L296.085 155.292L312.855 109.024L300.987 109.024Z"/>
</g>
</g>
</svg>
