<?xml version="1.0" encoding="UTF-8" standalone="no"?>
<!DOCTYPE svg PUBLIC "-//W3C//DTD SVG 1.1//EN" "http://www.w3.org/Graphics/SVG/1.1/DTD/svg11.dtd">
<!-- Created with Vectornator (http://vectornator.io/) -->
<svg height="100%" stroke-miterlimit="10" style="fill-rule:nonzero;clip-rule:evenodd;stroke-linecap:round;stroke-linejoin:round;" version="1.1" viewBox="0 0 453.6 453.6" width="100%" xml:space="preserve" xmlns="http://www.w3.org/2000/svg" xmlns:vectornator="http://vectornator.io" xmlns:xlink="http://www.w3.org/1999/xlink">
<defs>
<linearGradient gradientTransform="matrix(1 0 0 1 0 0)" gradientUnits="userSpaceOnUse" id="LinearGradient" x1="58.6042" x2="387.824" y1="69.0958" y2="391.562">
<stop offset="0" stop-color="#294d9c"/>
<stop offset="1" stop-color="#4be1e2"/>
</linearGradient>
<linearGradient gradientTransform="matrix(1 0 0 1 0 0)" gradientUnits="userSpaceOnUse" id="LinearGradient_2" x1="59.9166" x2="387.824" y1="72.1396" y2="388.927">
<stop offset="0" stop-color="#294d9c"/>
<stop offset="0.997783" stop-color="#4be1e2"/>
</linearGradient>
<linearGradient gradientTransform="matrix(1 0 0 1 0 0)" gradientUnits="userSpaceOnUse" id="LinearGradient_3" x1="59.2953" x2="389.846" y1="71.3125" y2="386.846">
<stop offset="0" stop-color="#294d9c"/>
<stop offset="1" stop-color="#4be1e2"/>
</linearGradient>
<linearGradient gradientTransform="matrix(1 0 0 1 0 0)" gradientUnits="userSpaceOnUse" id="LinearGradient_4" x1="56.4831" x2="387.824" y1="72.5991" y2="391.092">
<stop offset="0" stop-color="#294d9c"/>
<stop offset="1" stop-color="#4be1e2"/>
</linearGradient>
<linearGradient gradientTransform="matrix(1 0 0 1 0 0)" gradientUnits="userSpaceOnUse" id="LinearGradient_5" x1="60.2291" x2="388.379" y1="67.6952" y2="390.143">
<stop offset="0" stop-color="#294d9c"/>
<stop offset="1" stop-color="#4be1e2"/>
</linearGradient>
</defs>
<clipPath id="ArtboardFrame">
<rect height="453.6" width="453.6" x="0" y="0"/>
</clipPath>
<g clip-path="url(#ArtboardFrame)" id="Layer-1" vectornator:layerName="Layer-1">
<path d="M371.125 51.8719C302.943-4.37392 209.394-15.396 130.711 21.3387C100.446 35.4683 73.5647 56.1764 51.855 82.4909C-27.8533 179.106-14.1442 322.042 82.4752 401.747C179.095 481.452 322.037 467.744 401.745 371.128C481.453 274.513 467.744 131.577 371.125 51.8719ZM226.8 17.7256C342.279 17.7256 435.893 111.336 435.893 226.81C435.893 342.283 342.279 435.894 226.8 435.893C111.321 435.893 17.7072 342.283 17.7073 226.81C17.7073 194.689 24.9551 164.241 37.8974 137.049C71.4832 66.4821 143.443 17.7256 226.8 17.7256Z" fill="url(#LinearGradient)" fill-rule="nonzero" opacity="1" stroke="none"/>
<path d="M391.179 258.092C390.436 257.94 389.732 258.207 389.182 258.645C380.744 257.081 372.299 261.928 369.668 270.323C366.825 279.392 371.846 289.052 380.915 291.895C389.985 294.737 399.645 289.686 402.488 280.617C405.152 272.119 400.847 263.192 392.839 259.752C392.561 258.966 392.055 258.272 391.179 258.092ZM226.8 54.6011C215.045 54.6011 203.44 55.7848 192.105 58.1043C180.987 60.3792 170.167 63.7579 159.776 68.1528C149.529 72.4867 139.731 77.7871 130.52 84.0093C128.27 85.5294 127.679 88.6119 129.199 90.862C130.719 93.112 133.771 93.7035 136.021 92.1833C144.705 86.3165 153.958 81.3034 163.617 77.2181C173.411 73.0758 183.593 69.8976 194.072 67.7533C204.759 65.5665 215.708 64.4346 226.8 64.4346C237.892 64.4346 248.841 65.5665 259.528 67.7533C270.007 69.8975 280.189 73.0758 289.983 77.2181C299.642 81.3034 308.895 86.3165 317.579 92.1833C326.201 98.0083 334.25 104.644 341.61 112.004C348.971 119.364 355.607 127.412 361.432 136.034C367.299 144.718 372.312 153.94 376.398 163.599C380.54 173.392 383.719 183.604 385.863 194.083C388.05 204.769 389.151 215.718 389.151 226.81C389.151 237.901 388.05 248.85 385.863 259.537C385.319 262.197 387.013 264.769 389.674 265.314C392.334 265.858 394.937 264.164 395.482 261.503C397.801 250.168 398.985 238.564 398.985 226.81C398.985 215.055 397.801 203.451 395.482 192.116C393.207 180.998 389.859 170.179 385.463 159.788C381.129 149.542 375.798 139.744 369.576 130.534C363.399 121.391 356.359 112.862 348.556 105.059C340.752 97.2561 332.223 90.1858 323.08 84.0093C313.869 77.7871 304.071 72.4867 293.824 68.1528C283.433 63.7579 272.613 60.3792 261.495 58.1043C250.16 55.7848 238.556 54.6011 226.8 54.6011Z" fill="url(#LinearGradient_2)" fill-rule="nonzero" opacity="1" stroke="none"/>
<path d="M65.8625 160.956C59.1872 161.601 53.244 166.139 51.1117 172.941C48.4463 181.443 52.7443 190.4 60.7612 193.837C61.0395 194.622 61.5445 195.317 62.4207 195.496C63.1633 195.648 63.8375 195.381 64.3874 194.943C72.8307 196.518 81.2989 191.635 83.9323 183.235C86.7754 174.166 81.7233 164.537 72.654 161.694C70.3867 160.983 68.0876 160.741 65.8625 160.956ZM61.9597 188.244C60.0811 188.621 58.5267 190.09 58.1183 192.085C55.7987 203.419 54.6152 215.025 54.615 226.779C54.6149 238.533 55.7989 250.138 58.1183 261.472C60.3933 272.589 63.7416 283.41 68.1366 293.8C72.4705 304.046 77.8021 313.845 84.0245 323.055C90.2012 332.197 97.2411 340.727 105.044 348.529C112.848 356.332 121.377 363.372 130.52 369.548C139.731 375.77 149.529 381.102 159.776 385.436C170.167 389.83 180.987 393.178 192.105 395.453C203.44 397.773 215.044 398.956 226.8 398.957C238.555 398.957 250.16 397.773 261.495 395.453C272.613 393.179 283.433 389.83 293.824 385.436C304.071 381.102 313.869 375.77 323.08 369.548C325.33 368.028 325.921 364.977 324.401 362.726C322.881 360.476 319.829 359.885 317.579 361.405C308.895 367.271 299.642 372.285 289.983 376.37C280.189 380.512 270.007 383.691 259.528 385.835C248.841 388.022 237.892 389.123 226.8 389.123C215.708 389.123 204.759 388.022 194.072 385.835C183.593 383.691 173.38 380.512 163.587 376.37C153.928 372.285 144.705 367.272 136.021 361.405C127.399 355.58 119.35 348.944 111.99 341.584C104.63 334.225 97.9933 326.176 92.1681 317.554C86.3012 308.87 81.2875 299.617 77.2022 289.959C73.0599 280.166 69.8813 269.984 67.7371 259.506C65.5503 248.82 64.4488 237.87 64.4489 226.779C64.449 215.688 65.5501 204.738 67.7371 194.052C68.2816 191.392 66.5562 188.788 63.8957 188.244C63.2306 188.108 62.5859 188.118 61.9597 188.244Z" fill="url(#LinearGradient_3)" fill-rule="nonzero" opacity="1" stroke="none"/>
<path d="M226.8 110.375C222.807 110.375 218.843 110.559 214.907 110.959C211.013 111.355 207.163 111.962 203.352 112.741C199.579 113.514 195.83 114.46 192.166 115.599C188.533 116.729 184.969 118.054 181.472 119.533C177.999 121.001 174.61 122.62 171.3 124.419C168.008 126.207 164.785 128.16 161.681 130.257C158.589 132.346 155.617 134.581 152.739 136.956C149.865 139.327 147.106 141.851 144.472 144.485C141.838 147.119 139.314 149.878 136.943 152.751C134.567 155.63 132.333 158.601 130.244 161.694C128.147 164.798 126.224 168.02 124.436 171.312C122.637 174.622 120.987 178.011 119.519 181.483C118.039 184.98 116.715 188.544 115.585 192.177C114.445 195.841 113.499 199.559 112.727 203.332C111.947 207.142 111.371 210.993 110.975 214.886C110.576 218.822 110.361 222.816 110.361 226.81C110.361 230.803 110.576 234.766 110.975 238.702C111.25 241.403 113.652 243.371 116.353 243.096C119.055 242.822 121.022 240.389 120.748 237.688C120.382 234.082 120.195 230.471 120.195 226.81C120.195 223.148 120.382 219.506 120.748 215.901C121.11 212.335 121.663 208.786 122.377 205.299C123.083 201.846 123.946 198.449 124.989 195.097C126.023 191.773 127.231 188.494 128.584 185.294C129.928 182.116 131.425 179.013 133.071 175.983C134.708 172.969 136.467 170.036 138.387 167.194C140.301 164.362 142.358 161.626 144.534 158.989C146.705 156.358 149.004 153.843 151.417 151.43C153.83 149.017 156.376 146.718 159.008 144.547C161.644 142.371 164.381 140.314 167.213 138.401C170.055 136.481 172.988 134.691 176.002 133.054C179.032 131.408 182.136 129.911 185.313 128.567C188.513 127.214 191.762 126.036 195.086 125.003C198.438 123.96 201.866 123.066 205.319 122.36C208.806 121.646 212.325 121.124 215.891 120.762C219.496 120.396 223.139 120.209 226.8 120.209C230.461 120.209 234.104 120.396 237.709 120.762C241.275 121.124 244.794 121.646 248.281 122.36C251.734 123.066 255.131 123.96 258.484 125.003C261.807 126.036 265.087 127.214 268.287 128.567C270.788 129.625 273.682 128.456 274.74 125.955C275.798 123.454 274.629 120.59 272.128 119.533C268.631 118.054 265.067 116.729 261.434 115.599C257.77 114.46 254.021 113.514 250.248 112.741C246.437 111.962 242.587 111.354 238.693 110.959C234.757 110.559 230.793 110.375 226.8 110.375ZM115.616 235.752C114.618 235.853 113.973 236.609 113.68 237.503C105.522 240.557 100.799 249.296 103.047 257.908C105.447 267.104 114.84 272.6 124.036 270.2C133.232 267.799 138.76 258.407 136.359 249.211C134.149 240.745 125.976 235.471 117.521 236.551C117.016 236.035 116.39 235.673 115.616 235.752Z" fill="url(#LinearGradient_4)" fill-rule="nonzero" opacity="1" stroke="none"/>
<path d="M337.247 210.492C334.545 210.767 332.578 213.199 332.852 215.901C333.218 219.506 333.405 223.148 333.405 226.81C333.405 230.471 333.218 234.082 332.852 237.688C332.49 241.253 331.937 244.802 331.223 248.29C330.517 251.742 329.654 255.14 328.611 258.492C327.577 261.815 326.369 265.095 325.016 268.294C323.672 271.472 322.175 274.576 320.529 277.606C318.892 280.619 317.102 283.552 315.182 286.394C313.269 289.226 311.242 291.962 309.067 294.599C306.895 297.231 304.596 299.745 302.183 302.158C299.77 304.571 297.224 306.87 294.592 309.042C291.956 311.218 289.219 313.275 286.387 315.188C283.545 317.108 280.612 318.897 277.598 320.535C274.568 322.181 271.465 323.677 268.287 325.021C265.087 326.375 261.807 327.552 258.484 328.586C255.131 329.628 251.734 330.522 248.281 331.229C244.794 331.942 241.275 332.465 237.709 332.827C234.104 333.193 230.461 333.38 226.8 333.38C223.139 333.38 219.496 333.193 215.891 332.827C212.325 332.464 208.806 331.942 205.319 331.229C201.866 330.522 198.438 329.628 195.086 328.586C191.762 327.552 188.513 326.375 185.313 325.021C182.812 323.963 179.918 325.132 178.86 327.633C177.802 330.134 178.971 333.029 181.472 334.086C184.969 335.566 188.533 336.859 192.166 337.989C195.83 339.129 199.579 340.075 203.352 340.847C207.163 341.627 211.013 342.234 214.907 342.629C218.843 343.029 222.807 343.213 226.8 343.213C230.793 343.213 234.757 343.029 238.693 342.629C242.587 342.234 246.437 341.627 250.248 340.847C254.021 340.075 257.77 339.129 261.434 337.989C265.067 336.859 268.631 335.566 272.128 334.086C275.601 332.618 278.99 330.968 282.3 329.17C285.592 327.381 288.784 325.428 291.888 323.331C294.98 321.242 297.983 319.008 300.861 316.632C303.735 314.261 306.494 311.768 309.128 309.134C311.762 306.5 314.255 303.741 316.626 300.868C319.002 297.989 321.267 294.987 323.356 291.895C325.453 288.791 327.376 285.599 329.164 282.307C330.963 278.997 332.613 275.577 334.081 272.105C335.561 268.608 336.854 265.044 337.984 261.411C339.124 257.747 340.101 254.03 340.873 250.256C341.653 246.446 342.229 242.596 342.625 238.702C343.024 234.766 343.239 230.803 343.239 226.81C343.239 222.816 343.024 218.822 342.625 214.886C342.35 212.185 339.948 210.218 337.247 210.492ZM333.006 182.866C331.864 182.927 330.714 183.089 329.564 183.389C320.368 185.789 314.84 195.181 317.241 204.377C319.449 212.834 327.573 218.101 336.017 217.038C336.524 217.572 337.195 217.917 337.984 217.837C338.982 217.735 339.627 216.98 339.92 216.085C348.069 213.027 352.8 204.318 350.553 195.711C348.453 187.665 340.999 182.438 333.006 182.866Z" fill="url(#LinearGradient_5)" fill-rule="nonzero" opacity="1" stroke="none"/>
</g>
</svg>
